<svg id="Layer_1" data-name="Layer 1" xmlns="http://www.w3.org/2000/svg" viewBox="0 0 121.8898 27.5883"><defs><style>.cls-1,.cls-3,.cls-4{fill:none;}.cls-2{fill:#b5d2eb;fill-rule:evenodd;}.cls-3,.cls-4{stroke:#231f20;}.cls-3{stroke-linecap:round;stroke-width:0.72px;stroke-dasharray:0.001 2.1173;}.cls-4{stroke-width:0.6px;}.cls-5{fill:#231f20;}</style></defs><title>k25-iho</title><rect class="cls-1" width="121.8898" height="27.5883"/><path class="cls-2" d="M43.8101,13.3433c-0.0872-4.8104,11.1956-4.986,11.1079,0C54.918,18.5037,43.8979,18.1537,43.8101,13.3433Z" transform="translate(0 0)"/><path class="cls-3" d="M43.8101,13.3433c-0.0872-4.8104,11.1956-4.986,11.1079,0C54.918,18.5037,43.8979,18.1537,43.8101,13.3433Z" transform="translate(0 0)"/><line class="cls-4" x1="45.7344" y1="13.3764" x2="52.9939" y2="13.3764"/><line class="cls-4" x1="49.4078" y1="11.2334" x2="49.4078" y2="15.5195"/><line class="cls-4" x1="47.1336" y1="12.2394" x2="47.1336" y2="14.5135"/><line class="cls-4" x1="51.5069" y1="12.2394" x2="51.5069" y2="14.5135"/><path class="cls-5" d="M58.9165,16.05566l0.71289-4.29492h0.57666l0.37451,2.7832q0.074,0.55371.09521,1.05176,0.14868-.43652.48682-1.1748l1.23-2.66016h0.584L62.2793,16.05566h-0.4624L62.168,13.9668q0.123-.72656.34961-1.623-0.15234.41895-.377,0.90234l-1.30371,2.80957H60.38428L60.0127,13.30176q-0.04907-.36328-0.07373-0.88184-0.05347.54785-.11035,0.89648l-0.45508,2.73926h-0.457Z" transform="translate(0 0)"/><path class="cls-5" d="M64.66113,15.66895a1.6522,1.6522,0,0,1-.45117.35449,0.96926,0.96926,0,0,1-.42773.10254,0.73482,0.73482,0,0,1-.56348-0.24316,0.93889,0.93889,0,0,1-.22363-0.66211,1.00446,1.00446,0,0,1,.13184-0.52148,0.87978,0.87978,0,0,1,.36914-0.3418,1.76188,1.76188,0,0,1,.68164-0.13867q0.37354-.02051.5127-0.04395a0.9171,0.9171,0,0,0,.23828-0.07031,1.4378,1.4378,0,0,0,.0625-0.36328,0.38087,0.38087,0,0,0-.14844-0.313,0.6743,0.6743,0,0,0-.42773-0.11768,0.70474,0.70474,0,0,0-.73145.5625l-0.43945-.04395a1.17223,1.17223,0,0,1,1.19727-.95508,1.03207,1.03207,0,0,1,.71387.23584,0.763,0.763,0,0,1,.26465.59326,2.80341,2.80341,0,0,1-.07031.57422l-0.167.76953a2.926,2.926,0,0,0-.08008.5957,2.27506,2.27506,0,0,0,.0498.41309H64.70605A2.4009,2.4009,0,0,1,64.66113,15.66895Zm0.19043-1.18945a1.91593,1.91593,0,0,1-.55469.11719,2.1277,2.1277,0,0,0-.54883.10547,0.50391,0.50391,0,0,0-.23242.19629,0.5575,0.5575,0,0,0-.084.30469,0.51607,0.51607,0,0,0,.13281.375,0.47149,0.47149,0,0,0,.35547.1377,0.72279,0.72279,0,0,0,.4043-0.12891,0.93755,0.93755,0,0,0,.31836-0.37207A2.77844,2.77844,0,0,0,64.85156,14.47949Z" transform="translate(0 0)"/><path class="cls-5" d="M65.70215,14.99219L66.13574,14.96a0.81393,0.81393,0,0,0,.167.56836,0.59344,0.59344,0,0,0,.46289.1875A0.626,0.626,0,0,0,67.1875,15.583a0.43058,0.43058,0,0,0,.15527-0.3418,0.41892,0.41892,0,0,0-.09668-0.26953,1.50812,1.50812,0,0,0-.43066-0.293,2.95116,2.95116,0,0,1-.502-0.30566,0.73062,0.73062,0,0,1-.18945-0.26123,0.84913,0.84913,0,0,1-.06738-0.34424,0.86909,0.86909,0,0,1,.252-0.6416,0.89525,0.89525,0,0,1,.66211-0.252,0.97928,0.97928,0,0,1,.71777.25928,1.00848,1.00848,0,0,1,.27539.7251l-0.42773.03516a0.63953,0.63953,0,0,0-.168-0.45117,0.58573,0.58573,0,0,0-.42969-0.1582,0.49287,0.49287,0,0,0-.34277.11865,0.35945,0.35945,0,0,0-.13184.27393,0.3539,0.3539,0,0,0,.0791.23145,1.39984,1.39984,0,0,0,.40137.2666,2.438,2.438,0,0,1,.62988.415,0.8879,0.8879,0,0,1,.20508.59277,0.91445,0.91445,0,0,1-.27344.665,1.01622,1.01622,0,0,1-.75879.27832,1.02728,1.02728,0,0,1-.7666-0.28125,1.08029,1.08029,0,0,1-.27832-0.79395V14.99219Z" transform="translate(0 0)"/><path class="cls-5" d="M69.10938,15.625l-0.07422.43359a0.93231,0.93231,0,0,1-.293.0498,0.52843,0.52843,0,0,1-.375-0.12891,0.45091,0.45091,0,0,1-.1377-0.3457A3.97336,3.97336,0,0,1,68.293,15.1582l0.30957-1.80371H68.25977l0.07031-.41016h0.3418l0.12793-.74707,0.5-.36621-0.19043,1.11328h0.4248l-0.07031.41016h-0.4248l-0.29395,1.7168c-0.03711.22168-.05566,0.35254-0.05566,0.3916a0.20705,0.20705,0,0,0,.0459.15039,0.17939,0.17939,0,0,0,.13477.04688A0.75631,0.75631,0,0,0,69.10938,15.625Z" transform="translate(0 0)"/><path class="cls-5" d="M69.53125,14.99219L69.96484,14.96a0.81393,0.81393,0,0,0,.167.56836,0.59344,0.59344,0,0,0,.46289.1875A0.626,0.626,0,0,0,71.0166,15.583a0.43058,0.43058,0,0,0,.15527-0.3418,0.41892,0.41892,0,0,0-.09668-0.26953,1.50812,1.50812,0,0,0-.43066-0.293,2.95116,2.95116,0,0,1-.502-0.30566,0.73062,0.73062,0,0,1-.18945-0.26123,0.84913,0.84913,0,0,1-.06738-0.34424,0.86909,0.86909,0,0,1,.252-0.6416,0.89525,0.89525,0,0,1,.66211-0.252,0.97928,0.97928,0,0,1,.71777.25928,1.00848,1.00848,0,0,1,.27539.7251l-0.42773.03516a0.63953,0.63953,0,0,0-.168-0.45117,0.58573,0.58573,0,0,0-.42969-0.1582,0.49287,0.49287,0,0,0-.34277.11865,0.35945,0.35945,0,0,0-.13184.27393,0.3539,0.3539,0,0,0,.0791.23145,1.39984,1.39984,0,0,0,.40137.2666,2.438,2.438,0,0,1,.62988.415,0.8879,0.8879,0,0,1,.20508.59277,0.91445,0.91445,0,0,1-.27344.665,1.01622,1.01622,0,0,1-.75879.27832,1.02728,1.02728,0,0,1-.7666-0.28125,1.08029,1.08029,0,0,1-.27832-0.79395V14.99219Z" transform="translate(0 0)"/></svg>